<?xml version="1.0" encoding="utf-8"?>
<svg width="100%" height="100%" viewBox="0 0 16 16" version="1.1" xmlns="http://www.w3.org/2000/svg" style="fill-rule:evenodd;clip-rule:evenodd;stroke-linejoin:round;stroke-miterlimit:2;">
  <rect x="2" y="5.275" width="12.001" height="2" style="fill: rgb(149, 149, 149);"/>
  <rect x="2" y="8.858" width="12.001" height="2" style="fill: rgb(149, 149, 149);"/>
  <rect x="8.306" y="4.002" width="1.344" height="2" style="fill: rgb(149, 149, 149);"/>
  <rect x="5.806" y="7.051" width="1.344" height="2" style="fill: rgb(149, 149, 149);"/>
  <rect x="8.306" y="10.258" width="1.344" height="2" style="fill: rgb(149, 149, 149);"/>
  <g transform="matrix(1,0,0,1,-95,-133)">
    <g id="Draw-Hollow-Rectangle" transform="matrix(1,0,0,1,5,133)">
      <rect x="90" y="0" width="16" height="16" style="fill:none;"/>
      <g transform="matrix(1,0,0,1,71,-171)">
        <path d="M33,173L21,173L21,185L33,185L33,173ZM31,175L31,183C31,183 23,183 23,183C23,183 23,175 23,175L31,175Z" style="fill:rgb(110,110,110);"/>
      </g>
    </g>
  </g>
</svg>